<svg width="200" height="200" xmlns="http://www.w3.org/2000/svg" stroke="null" style="vector-effect: non-scaling-stroke;">
    <!-- Created with Method Draw - http://github.com/duopixel/Method-Draw/ -->
    <!--<g>-->
    <!--<title>background</title>-->
    <!--<rect fill="#fff" id="canvas_background" height="202" width="202" y="-1" x="-1"/>-->
    <!--</g>-->
    <defs></defs>
    <g>
        <!--<title>Layer 1</title>-->
        <path stroke="red" id="svg_8" d="m22.539829,148.47786l154.852645,0.059225l-5.025005,7.440365l-144.743307,-0.177684l-5.084342,-7.321906l0.000009,0zm1.064164,-98.973663l152.783434,-0.177684l4.43394,7.632667l-161.710504,0.059234l4.49313,-7.514218zm-15.077859,49.594363l182.820827,-0.177684l-0.236311,7.632677l-182.466273,-0.11845l-0.118242,-7.336543zm182.972167,0.707932c0,50.530126 -41.039184,91.636891 -91.491449,91.636891c-50.430465,0 -91.462,-41.114202 -91.462,-91.636891c0,-50.522946 41.038946,-91.629711 91.462,-91.629711c50.452274,-0.007419 91.491449,41.106764 91.491449,91.629711zm-91.484268,-98.973672c-54.456109,0 -98.770278,44.395434 -98.770278,98.966225c0,54.578229 44.314177,98.973653 98.770278,98.973653c54.485759,0 98.792545,-44.395424 98.792545,-98.973653c0,-54.570791 -44.306776,-98.966225 -98.792545,-98.966225zm27.71772,98.973672c0,53.99564 -14.602202,91.636891 -27.71772,91.636891c-13.100671,0 -27.702643,-37.64125 -27.702643,-91.636891c0,-54.010516 14.594773,-91.629711 27.702643,-91.629711c13.108117,-0.007419 27.71772,37.619195 27.71772,91.629711zm-27.71772,-98.973672c-22.749365,0 -35.02575,50.99458 -35.02575,98.966225c0,47.986292 12.276385,98.973653 35.02575,98.973653c22.749603,0 35.048237,-50.994771 35.048237,-98.973653c-0.007419,-47.971645 -12.298634,-98.966225 -35.048237,-98.966225zm64.914755,98.973672c0,50.530126 -29.130705,91.636891 -64.914755,91.636891c-35.776603,0 -64.892496,-41.114202 -64.892496,-91.636891c0,-50.522946 29.115894,-91.629711 64.892496,-91.629711c35.78405,-0.007419 64.914755,41.106764 64.914755,91.629711zm-64.914755,-98.973672c-39.809896,0 -72.215603,44.395434 -72.215603,98.966225c0,54.578229 32.405708,98.973653 72.215603,98.973653c39.824734,0 72.223252,-44.395424 72.223252,-98.973653c0,-54.570791 -32.398517,-98.966225 -72.223252,-98.966225z" fill-opacity="null" stroke-width="1.5" fill="red">
            <animate attributeType="CSS" attributeName="opacity" from="1" to="0.5" dur="5s" repeatCount="indefinite" />
        </path>
        <!--<text stroke="#7AD6CA" font-weight="bold" xml:space="preserve" text-anchor="start" font-family="'Simonetta', serif" font-size="20" id="svg_12" y="158.639937" x="282.138353" fill-opacity="null" stroke-opacity="null" stroke-width="0" fill="#000000">x i u e r y</text>-->
        <!--<text font-weight="bold" xml:space="preserve" text-anchor="start" font-family="'Simonetta', serif" font-size="8" id="svg_3" y="104.682292" x="80.625" fill-opacity="null" stroke-opacity="null" stroke-width="0" stroke="#7AD6CA" fill="#000000">x  i  u  e  r  y</text>-->
    </g>
</svg>