<svg width="50" height="50" xmlns="http://www.w3.org/2000/svg">
    <g>
        <title>logo</title>
        <rect fill="none" id="canvas_logo" height="52" width="52" y="-1" x="-1"/>
    </g>
    <g>
        <title>outer</title>
        <path id="outer" stroke="#36a7d8" stroke-width="1" stroke-miterlimit="10" fill="#DDDDDD" d="m48.29848,13.22237c-0.10355,-0.19466 -0.31064,-0.48666 -0.51774,-0.77866c-1.86386,-2.43331 -20.29542,-12.06922 -22.57347,-11.77722c0,0 -0.10355,0 -0.2071,0c-0.10355,0 -0.31064,0 -0.31064,0c-2.38161,-0.19466 -18.94929,8.46792 -22.15928,11.38789c-0.51774,0.48666 -0.82838,0.97332 -0.93193,1.36265c-1.13903,3.11464 -1.24258,18.39582 -0.2071,22.58112c0.2071,0.77866 0.72484,1.65465 1.55322,2.23865c2.07096,1.65465 7.24836,4.57462 12.01157,7.00793c3.83128,1.94665 7.45546,3.6013 9.11223,3.99063c0.62129,0.09733 1.24258,0.09733 1.86386,0c1.44967,-0.292 4.45257,-1.65465 7.7661,-3.21197c5.28095,-2.62797 11.49383,-6.13194 13.56479,-7.88392c0.62129,-0.58399 1.13903,-1.26532 1.34612,-2.04398c1.03548,-4.18529 0.93193,-20.53714 -0.31064,-22.87311z" />
        <text id="inner" stroke="#36a7d8" stroke-width="0" fill="#36a7d8" style="cursor: move;" font-weight="bold" xml:space="preserve" text-anchor="start" font-family="Georgia, Times, 'Times New Roman', serif" font-size="40" y="38.92964" x="8.31256" fill-opacity="null" stroke-opacity="null">X</text>
    </g>
</svg>